<?xml version="1.0" encoding="utf-8"?>
<!-- Generator: Adobe Illustrator 16.0.0, SVG Export Plug-In . SVG Version: 6.00 Build 0)  -->
<!DOCTYPE svg PUBLIC "-//W3C//DTD SVG 1.1//EN" "http://www.w3.org/Graphics/SVG/1.1/DTD/svg11.dtd">
<svg version="1.1" id="图层_1" xmlns="http://www.w3.org/2000/svg" xmlns:xlink="http://www.w3.org/1999/xlink" x="0px" y="0px"
	 width="200px" height="200px" viewBox="0 0 200 200" enable-background="new 0 0 200 200" xml:space="preserve">
<path fill="#3E3C3C" d="M158.186,112.539c0,0.271-0.029,0.451-0.074,0.541c-3.338,13.998-10.345,25.334-20.989,34.025
	c-10.66,8.689-23.124,13.051-37.438,13.051c-7.623,0-15.006-1.43-22.117-4.316c-7.127-2.871-13.486-6.961-19.079-12.283
	L48.385,153.66c-0.993,0.992-2.181,1.488-3.519,1.488s-2.541-0.496-3.519-1.488c-0.992-0.992-1.488-2.18-1.488-3.518v-35.107
	c0-1.354,0.496-2.541,1.488-3.518c0.992-0.993,2.165-1.489,3.519-1.489h35.077c1.353,0,2.541,0.496,3.518,1.489
	c0.978,0.992,1.489,2.18,1.489,3.518s-0.496,2.541-1.489,3.518l-10.72,10.721c3.698,3.443,7.908,6.104,12.614,7.984
	c4.691,1.879,9.593,2.811,14.645,2.811c7.007,0,13.517-1.699,19.576-5.082c6.059-3.398,10.9-8.074,14.554-14.012
	c0.571-0.888,1.954-3.939,4.149-9.157c0.406-1.202,1.203-1.789,2.36-1.789h15.035c0.677,0,1.264,0.241,1.76,0.737
	S158.186,111.863,158.186,112.539z M160.141,49.888v35.077c0,1.353-0.496,2.541-1.488,3.518c-0.992,0.978-2.181,1.488-3.519,1.488
	h-35.077c-1.353,0-2.541-0.496-3.518-1.488c-0.978-0.992-1.489-2.165-1.489-3.518s0.496-2.541,1.489-3.519l10.81-10.81
	c-7.743-7.142-16.854-10.72-27.334-10.72c-7.006,0-13.517,1.699-19.575,5.082c-6.06,3.383-10.916,8.074-14.555,14.013
	c-0.571,0.887-1.954,3.939-4.149,9.157c-0.406,1.203-1.202,1.789-2.36,1.789H43.769c-0.677,0-1.263-0.241-1.759-0.737
	s-0.737-1.083-0.737-1.759v-0.541c3.398-13.983,10.449-25.334,21.154-34.025c10.705-8.69,23.245-13.05,37.588-13.05
	c7.623,0,15.035,1.443,22.237,4.345s13.606,6.976,19.185,12.253l10.179-10.104c0.993-0.992,2.166-1.488,3.519-1.488
	c1.354,0,2.541,0.496,3.519,1.488C159.63,47.362,160.141,48.535,160.141,49.888L160.141,49.888z"/>
</svg>
