<?xml version="1.0" standalone="no" ?>
<!DOCTYPE svg PUBLIC "-//W3C//DTD SVG 1.1//EN" "http://www.w3.org/Graphics/SVG/1.1/DTD/svg11.dtd">
<svg t="1563001101937" class="icon" viewBox="0 0 1117 1024" version="1.1" xmlns="http://www.w3.org/2000/svg" p-id="10555" xmlns:xlink="http://www.w3.org/1999/xlink" width="218.1640625" height="200">
    <defs>
        <style type="text/css"></style>
		<linearGradient id="grad1" x1="0%" y1="0%" x2="100%" y2="100%">
		  <stop offset="0%" style="stop-color:rgb(255,255,0);stop-opacity:1" />
		  <stop offset="100%" style="stop-color:rgb(255,0,0);stop-opacity:1" />
		</linearGradient>
    </defs>
    <path d="M1117.088818 0.002H279.365454v726.615581c-31.954938-31.462939-63.502876-44.074914-103.759797-44.074914C78.779846 682.542667 0 759.887516 0 854.96233c0 95.038814 78.779846 168.116672 175.605657 168.116672 92.32082 0 165.606677-64.344874 173.283662-163.616681V340.311335l699.598633 0.613999v309.230396c-28.721944-31.460939-59.311884-37.229927-99.261806-37.229927-96.139812 0-179.772649 76.76685-179.772649 171.152666s83.632837 171.194666 179.772649 171.194665c91.666821 0 168.86767-75.115853 167.851672-170.154667l0.01-785.117467z m-68.597866 264.612483H349.948317V112.205781h698.542635v152.408702z"
    p-id="10556" fill="url(#grad1)"></path>
</svg>